<svg id="svg" version="1.1" xmlns="http://www.w3.org/2000/svg" xmlns:xlink="http://www.w3.org/1999/xlink" width="400" height="450" viewBox="0, 0, 400,450"><g id="svgg"><path id="path0" d="M77.766 27.656 C 54.515 34.729,31.801 73.067,49.378 75.571 C 53.557 76.166,54.179 75.073,56.546 62.963 C 61.419 38.032,65.446 37.126,171.569 37.078 L 260.730 37.037 261.438 59.722 C 262.744 101.564,275.915 114.505,319.002 116.280 L 340.819 117.178 340.317 236.975 L 339.815 356.772 334.474 363.773 C 323.474 378.193,328.331 377.696,198.148 377.696 C 67.965 377.696,72.822 378.193,61.822 363.773 L 56.481 356.772 55.975 248.947 C 55.443 135.602,55.403 135.080,47.457 138.129 C 43.610 139.605,42.802 345.014,46.594 357.670 C 49.377 366.958,59.478 378.671,69.180 383.860 C 76.830 387.951,77.185 387.965,192.593 388.547 C 326.851 389.225,323.723 389.511,337.889 375.257 C 352.395 360.662,351.852 366.337,351.852 229.430 L 351.852 108.364 310.664 67.145 L 269.475 25.926 175.941 26.085 C 124.498 26.173,80.319 26.880,77.766 27.656 M307.656 79.156 L 332.407 103.681 314.260 103.693 C 282.982 103.712,272.222 92.792,272.222 61.030 L 272.222 46.015 277.563 50.322 C 280.501 52.691,294.043 65.666,307.656 79.156 " stroke="none" fill="#000000" fill-rule="evenodd"></path></g></svg>