<svg id="svg" version="1.1" xmlns="http://www.w3.org/2000/svg" xmlns:xlink="http://www.w3.org/1999/xlink" width="400" height="295.7055214723926" viewBox="0, 0, 400,295.7055214723926"><g id="svgg"><path id="path0" d="M228.221 20.217 C 220.460 21.827,196.718 26.517,175.460 30.641 C 119.610 41.476,114.282 42.706,107.421 46.358 C 88.138 56.621,16.021 142.483,15.962 155.249 C 15.917 165.023,35.228 193.604,55.779 214.179 C 85.352 243.786,141.037 282.419,156.731 284.216 C 171.761 285.938,311.743 268.381,317.791 264.016 C 321.484 261.351,369.213 192.235,373.597 183.205 C 375.297 179.704,376.681 174.734,376.673 172.162 C 376.658 166.937,345.304 70.946,341.932 65.798 C 339.360 61.874,253.346 18.532,246.626 17.775 C 244.264 17.508,235.982 18.607,228.221 20.217 M225.550 38.607 C 225.332 39.596,216.859 49.121,206.721 59.773 C 174.576 93.550,174.788 93.305,176.639 94.449 C 181.033 97.164,199.360 82.899,222.785 58.531 C 243.562 36.917,244.588 36.438,256.576 42.742 C 260.214 44.655,273.681 51.638,286.503 58.260 C 322.045 76.614,325.895 79.897,329.536 94.955 C 330.696 99.754,335.163 113.207,339.461 124.851 C 355.738 168.940,355.548 194.241,338.818 210.268 C 334.250 214.646,333.853 214.373,328.346 203.081 C 318.362 182.606,315.988 158.835,321.437 133.917 C 323.909 122.611,324.347 111.668,322.405 109.726 C 319.266 106.587,313.623 116.388,310.871 129.762 C 307.970 143.860,303.938 150.658,297.273 152.688 C 294.571 153.511,179.875 131.365,172.393 128.575 C 163.941 125.425,160.853 119.888,163.930 113.404 C 168.636 103.488,161.567 102.704,152.055 112.088 C 147.600 116.483,143.167 119.481,138.650 121.154 C 132.039 123.602,43.105 141.674,42.187 140.755 C 39.987 138.556,71.653 97.831,87.270 82.775 C 113.620 57.371,132.579 49.685,189.698 41.245 C 222.790 36.356,226.101 36.112,225.550 38.607 M148.549 138.646 C 183.852 148.128,220.563 155.673,252.129 159.933 C 263.982 161.533,273.905 163.066,274.178 163.340 C 274.452 163.614,268.227 166.841,260.344 170.513 C 196.348 200.321,186.746 206.010,178.544 218.981 C 174.974 224.626,172.805 229.439,162.587 254.382 C 156.365 269.572,160.709 271.002,118.568 239.892 C 73.008 206.258,61.704 195.524,52.654 177.301 C 42.818 157.497,43.158 157.001,71.166 150.277 C 81.626 147.766,98.742 143.600,109.202 141.019 C 131.191 135.594,136.087 135.298,148.549 138.646 M298.545 167.591 C 300.291 169.337,302.662 173.340,303.814 176.487 C 311.064 196.289,313.625 202.028,319.653 211.979 C 326.625 223.489,327.214 225.785,325.123 233.312 C 320.056 251.554,305.002 256.390,230.151 263.820 C 170.210 269.769,175.031 270.841,179.614 252.585 C 186.344 225.776,192.608 218.228,221.658 201.919 C 295.479 160.474,292.678 161.724,298.545 167.591 " stroke="none" fill="#000000" fill-rule="evenodd"></path></g></svg>